<svg xmlns="http://www.w3.org/2000/svg" xmlns:xlink="http://www.w3.org/1999/xlink" width="1591" height="997" viewBox="0 0 1591 997">
  <defs>
    <clipPath id="clip-path">
      <rect id="Rectangle_263" data-name="Rectangle 263" width="1591" height="997" transform="translate(-2116 958)" fill="#fff" stroke="#707070" stroke-width="1"/>
    </clipPath>
    <clipPath id="clip-path-2">
      <path id="Path_26" data-name="Path 26" d="M0,978H1857V0H0Z" fill="none"/>
    </clipPath>
  </defs>
  <g id="bgwave" transform="translate(2116 -958)" clip-path="url(#clip-path)">
    <g id="bgwave-2" data-name="bgwave" transform="translate(-2100 977)" opacity="0.18" clip-path="url(#clip-path-2)">
      <g id="Group_3" data-name="Group 3" transform="translate(-413.406 4.83)">
        <path id="Path_2" data-name="Path 2" d="M-413.406,13.251H146.508A280,280,0,0,1,405.377,186.543l82.9,201.124a280,280,0,0,0,231.487,171.95l134.54,13.221A198.831,198.831,0,0,1,1033.58,764.023c2.33,69.313,39.63,134.577,103.18,162.35,66.21,28.938,121.7,40.771,200.06,46.8" transform="translate(413.406 -13.251)" fill="none" stroke="#5849ff" stroke-linecap="round" stroke-width="5" stroke-dasharray="0.05 20" opacity="0.043"/>
        <path id="Path_3" data-name="Path 3" d="M-403.406,13.251H156.508A280,280,0,0,1,415.377,186.543l82.9,201.124a280,280,0,0,0,231.487,171.95l134.54,13.221A198.831,198.831,0,0,1,1043.58,764.023c2.33,69.313,39.63,134.577,103.18,162.35,66.21,28.938,121.7,40.771,200.06,46.8" transform="translate(413.406 -13.251)" fill="none" stroke="#5849ff" stroke-linecap="round" stroke-width="5" stroke-dasharray="0.05 20" opacity="0.087"/>
        <path id="Path_4" data-name="Path 4" d="M-393.406,13.251H166.508A280,280,0,0,1,425.377,186.543l82.9,201.124a280,280,0,0,0,231.487,171.95l134.54,13.221A198.831,198.831,0,0,1,1053.58,764.023c2.33,69.312,39.63,134.577,103.18,162.35,66.21,28.938,121.7,40.771,200.06,46.8" transform="translate(413.406 -13.251)" fill="none" stroke="#5849ff" stroke-linecap="round" stroke-width="5" stroke-dasharray="0.05 20" opacity="0.13"/>
        <path id="Path_5" data-name="Path 5" d="M-383.406,13.251H176.508A280,280,0,0,1,435.377,186.543l82.9,201.124a280,280,0,0,0,231.487,171.95l134.54,13.221A198.831,198.831,0,0,1,1063.58,764.023c2.33,69.312,39.63,134.577,103.18,162.35,66.21,28.938,121.7,40.771,200.06,46.8" transform="translate(413.406 -13.251)" fill="none" stroke="#5849ff" stroke-linecap="round" stroke-width="5" stroke-dasharray="0.05 20" opacity="0.174"/>
        <path id="Path_6" data-name="Path 6" d="M-373.406,13.251H186.508A280,280,0,0,1,445.377,186.543l82.9,201.124a280,280,0,0,0,231.487,171.95l134.54,13.221A198.831,198.831,0,0,1,1073.58,764.023c2.33,69.312,39.63,134.577,103.18,162.35,66.21,28.938,121.7,40.771,200.06,46.8" transform="translate(413.406 -13.251)" fill="none" stroke="#5849ff" stroke-linecap="round" stroke-width="5" stroke-dasharray="0.05 20" opacity="0.217"/>
        <path id="Path_7" data-name="Path 7" d="M-363.406,13.251H196.508A280,280,0,0,1,455.377,186.543l82.9,201.124a280,280,0,0,0,231.487,171.95l134.54,13.221A198.828,198.828,0,0,1,1083.58,764.023c2.33,69.312,39.63,134.577,103.18,162.35,66.21,28.938,121.7,40.771,200.06,46.8" transform="translate(413.406 -13.251)" fill="none" stroke="#5849ff" stroke-linecap="round" stroke-width="5" stroke-dasharray="0.05 20" opacity="0.261"/>
        <path id="Path_8" data-name="Path 8" d="M-353.406,13.251H206.508A280,280,0,0,1,465.377,186.543l82.9,201.124a280,280,0,0,0,231.487,171.95l134.54,13.221A198.828,198.828,0,0,1,1093.58,764.023c2.33,69.312,39.63,134.577,103.18,162.35,66.21,28.938,121.7,40.771,200.06,46.8" transform="translate(413.406 -13.251)" fill="none" stroke="#5849ff" stroke-linecap="round" stroke-width="5" stroke-dasharray="0.05 20" opacity="0.304"/>
        <path id="Path_9" data-name="Path 9" d="M-343.406,13.251H216.508A280,280,0,0,1,475.377,186.543l82.9,201.124a280,280,0,0,0,231.487,171.95l134.54,13.221A198.828,198.828,0,0,1,1103.58,764.023c2.33,69.312,39.63,134.577,103.18,162.35,66.21,28.938,121.7,40.771,200.06,46.8" transform="translate(413.406 -13.251)" fill="none" stroke="#5849ff" stroke-linecap="round" stroke-width="5" stroke-dasharray="0.05 20" opacity="0.348"/>
        <path id="Path_10" data-name="Path 10" d="M-333.406,13.251H226.508A280,280,0,0,1,485.377,186.543l82.9,201.124a280,280,0,0,0,231.487,171.95l134.54,13.221A198.828,198.828,0,0,1,1113.58,764.023c2.33,69.313,39.63,134.577,103.18,162.35,66.21,28.938,121.7,40.771,200.06,46.8" transform="translate(413.406 -13.251)" fill="none" stroke="#5849ff" stroke-linecap="round" stroke-width="5" stroke-dasharray="0.05 20" opacity="0.391"/>
        <path id="Path_11" data-name="Path 11" d="M-323.406,13.251H236.508A280,280,0,0,1,495.377,186.543l82.9,201.124a280,280,0,0,0,231.487,171.95l134.54,13.221A198.828,198.828,0,0,1,1123.58,764.023c2.33,69.313,39.63,134.577,103.18,162.35,66.21,28.938,121.7,40.771,200.06,46.8" transform="translate(413.406 -13.251)" fill="none" stroke="#5849ff" stroke-linecap="round" stroke-width="5" stroke-dasharray="0.05 20" opacity="0.435"/>
        <path id="Path_12" data-name="Path 12" d="M-313.406,13.251H246.508A280,280,0,0,1,505.377,186.543l82.9,201.124a280,280,0,0,0,231.487,171.95l134.54,13.221A198.828,198.828,0,0,1,1133.58,764.023c2.33,69.313,39.63,134.577,103.18,162.35,66.21,28.938,121.7,40.771,200.06,46.8" transform="translate(413.406 -13.251)" fill="none" stroke="#5849ff" stroke-linecap="round" stroke-width="5" stroke-dasharray="0.05 20" opacity="0.478"/>
        <path id="Path_13" data-name="Path 13" d="M-303.406,13.251H256.508A280,280,0,0,1,515.377,186.543l82.905,201.124a280,280,0,0,0,231.487,171.95l134.54,13.221A198.828,198.828,0,0,1,1143.58,764.023c2.33,69.313,39.63,134.577,103.18,162.35,66.21,28.938,121.7,40.771,200.06,46.8" transform="translate(413.406 -13.251)" fill="none" stroke="#5849ff" stroke-linecap="round" stroke-width="5" stroke-dasharray="0.05 20" opacity="0.522"/>
        <path id="Path_14" data-name="Path 14" d="M-293.406,13.251H266.508A280,280,0,0,1,525.377,186.543l82.905,201.124a280,280,0,0,0,231.487,171.95l134.54,13.221A198.828,198.828,0,0,1,1153.58,764.023c2.33,69.312,39.63,134.577,103.18,162.35,66.21,28.938,121.7,40.771,200.06,46.8" transform="translate(413.406 -13.251)" fill="none" stroke="#5849ff" stroke-linecap="round" stroke-width="5" stroke-dasharray="0.05 20" opacity="0.565"/>
        <path id="Path_15" data-name="Path 15" d="M-283.406,13.251H276.508A280,280,0,0,1,535.377,186.543l82.905,201.124a280,280,0,0,0,231.487,171.95l134.54,13.221A198.828,198.828,0,0,1,1163.58,764.023c2.33,69.312,39.63,134.577,103.18,162.35,66.21,28.938,121.7,40.771,200.06,46.8" transform="translate(413.406 -13.251)" fill="none" stroke="#5849ff" stroke-linecap="round" stroke-width="5" stroke-dasharray="0.05 20" opacity="0.609"/>
        <path id="Path_16" data-name="Path 16" d="M-273.406,13.251H286.508A280,280,0,0,1,545.377,186.543l82.905,201.124a280,280,0,0,0,231.487,171.95l134.54,13.221A198.828,198.828,0,0,1,1173.58,764.023c2.33,69.312,39.63,134.577,103.18,162.35,66.21,28.938,121.7,40.771,200.06,46.8" transform="translate(413.406 -13.251)" fill="none" stroke="#5849ff" stroke-linecap="round" stroke-width="5" stroke-dasharray="0.05 20" opacity="0.652"/>
        <path id="Path_17" data-name="Path 17" d="M-263.406,13.251H296.508A280,280,0,0,1,555.377,186.543l82.905,201.124a280,280,0,0,0,231.487,171.95l134.541,13.221a198.828,198.828,0,0,1,179.27,191.185c2.33,69.312,39.63,134.577,103.18,162.35,66.21,28.938,121.7,40.771,200.06,46.8" transform="translate(413.406 -13.251)" fill="none" stroke="#5849ff" stroke-linecap="round" stroke-width="5" stroke-dasharray="0.05 20" opacity="0.696"/>
        <path id="Path_18" data-name="Path 18" d="M-253.406,13.251H306.508A280,280,0,0,1,565.377,186.543l82.905,201.124a280,280,0,0,0,231.487,171.95l134.541,13.221a198.828,198.828,0,0,1,179.27,191.185c2.33,69.312,39.63,134.577,103.18,162.35,66.21,28.938,121.7,40.771,200.06,46.8" transform="translate(413.406 -13.251)" fill="none" stroke="#5849ff" stroke-linecap="round" stroke-width="5" stroke-dasharray="0.05 20" opacity="0.739"/>
        <path id="Path_19" data-name="Path 19" d="M-243.406,13.251H316.508A280,280,0,0,1,575.377,186.543l82.905,201.124a280,280,0,0,0,231.487,171.95l134.541,13.221a198.828,198.828,0,0,1,179.27,191.185c2.33,69.313,39.63,134.577,103.18,162.35,66.21,28.938,121.7,40.771,200.06,46.8" transform="translate(413.406 -13.251)" fill="none" stroke="#5849ff" stroke-linecap="round" stroke-width="5" stroke-dasharray="0.05 20" opacity="0.783"/>
        <path id="Path_20" data-name="Path 20" d="M-233.406,13.251H326.508A280,280,0,0,1,585.377,186.543l82.905,201.124a280,280,0,0,0,231.487,171.95l134.541,13.221a198.828,198.828,0,0,1,179.27,191.185c2.33,69.313,39.63,134.577,103.18,162.35,66.21,28.938,121.7,40.771,200.06,46.8" transform="translate(413.406 -13.251)" fill="none" stroke="#5849ff" stroke-linecap="round" stroke-width="5" stroke-dasharray="0.05 20" opacity="0.826"/>
        <path id="Path_21" data-name="Path 21" d="M-223.406,13.251H336.508A280,280,0,0,1,595.377,186.543l82.905,201.124a280,280,0,0,0,231.487,171.95l134.541,13.221a198.828,198.828,0,0,1,179.27,191.185c2.33,69.313,39.63,134.577,103.18,162.35,66.21,28.938,121.7,40.771,200.06,46.8" transform="translate(413.406 -13.251)" fill="none" stroke="#5849ff" stroke-linecap="round" stroke-width="5" stroke-dasharray="0.05 20" opacity="0.87"/>
        <path id="Path_22" data-name="Path 22" d="M-213.406,13.251H346.508A280,280,0,0,1,605.377,186.543l82.905,201.124a280,280,0,0,0,231.487,171.95l134.541,13.221a198.828,198.828,0,0,1,179.27,191.185c2.33,69.313,39.63,134.577,103.18,162.35,66.21,28.938,121.7,40.771,200.06,46.8" transform="translate(413.406 -13.251)" fill="none" stroke="#5849ff" stroke-linecap="round" stroke-width="5" stroke-dasharray="0.05 20" opacity="0.913"/>
        <path id="Path_23" data-name="Path 23" d="M-203.406,13.251H356.508A280,280,0,0,1,615.377,186.543l82.905,201.124a280,280,0,0,0,231.487,171.95l134.541,13.221a198.828,198.828,0,0,1,179.27,191.185c2.33,69.312,39.63,134.577,103.18,162.35,66.21,28.938,121.7,40.771,200.06,46.8" transform="translate(413.406 -13.251)" fill="none" stroke="#5849ff" stroke-linecap="round" stroke-width="5" stroke-dasharray="0.05 20" opacity="0.957"/>
        <path id="Path_24" data-name="Path 24" d="M-193.406,13.251H366.508A280,280,0,0,1,625.377,186.543l82.905,201.124a280,280,0,0,0,231.487,171.95l134.541,13.221a198.828,198.828,0,0,1,179.27,191.185c2.33,69.312,39.63,134.577,103.18,162.35,66.21,28.938,121.7,40.771,200.06,46.8" transform="translate(413.406 -13.251)" fill="none" stroke="#5849ff" stroke-linecap="round" stroke-width="5" stroke-dasharray="0.05 20"/>
      </g>
    </g>
  </g>
</svg>
