<svg xmlns="http://www.w3.org/2000/svg" xmlns:xlink="http://www.w3.org/1999/xlink" width="1702" height="896.368" viewBox="0 0 1702 896.368">
  <defs>
    <clipPath id="clip-path">
      <path id="Path_67" data-name="Path 67" d="M0,0H1702V896.369H0Z" fill="none"/>
    </clipPath>
  </defs>
  <g id="pinkwavebg" opacity="0.16" clip-path="url(#clip-path)">
    <g id="Group_5" data-name="Group 5" transform="translate(-378.9 12.145)">
      <path id="Path_43" data-name="Path 43" d="M-413.406,893.048H99.773A256.628,256.628,0,0,0,337.035,734.22L413.02,549.883a256.629,256.629,0,0,1,212.165-157.6L748.5,380.168A182.235,182.235,0,0,0,912.8,204.941c2.135-63.528,36.322-123.344,94.568-148.8,60.684-26.522,111.542-37.368,183.361-42.891" transform="translate(413.406 -13.251)" fill="none" stroke="#ab21ec" stroke-linecap="round" stroke-width="5" stroke-dasharray="0.05 20" opacity="0.043"/>
      <path id="Path_44" data-name="Path 44" d="M-403.406,893.048H109.773A256.628,256.628,0,0,0,347.035,734.22L423.02,549.883a256.629,256.629,0,0,1,212.165-157.6L758.5,380.168A182.235,182.235,0,0,0,922.8,204.941c2.135-63.528,36.322-123.344,94.568-148.8,60.684-26.522,111.542-37.368,183.361-42.891" transform="translate(412.571 -13.251)" fill="none" stroke="#ab21ec" stroke-linecap="round" stroke-width="5" stroke-dasharray="0.05 20" opacity="0.087"/>
      <path id="Path_45" data-name="Path 45" d="M-393.406,893.048H119.773A256.628,256.628,0,0,0,357.035,734.22L433.02,549.883a256.629,256.629,0,0,1,212.165-157.6L768.5,380.168A182.235,182.235,0,0,0,932.8,204.941c2.135-63.527,36.322-123.344,94.568-148.8,60.684-26.522,111.542-37.368,183.362-42.891" transform="translate(411.737 -13.251)" fill="none" stroke="#ab21ec" stroke-linecap="round" stroke-width="5" stroke-dasharray="0.05 20" opacity="0.13"/>
      <path id="Path_46" data-name="Path 46" d="M-383.406,893.048H129.773A256.628,256.628,0,0,0,367.035,734.22L443.02,549.883a256.629,256.629,0,0,1,212.165-157.6L778.5,380.168A182.235,182.235,0,0,0,942.8,204.941c2.135-63.527,36.322-123.344,94.568-148.8,60.684-26.522,111.542-37.368,183.361-42.891" transform="translate(410.902 -13.251)" fill="none" stroke="#ab21ec" stroke-linecap="round" stroke-width="5" stroke-dasharray="0.05 20" opacity="0.174"/>
      <path id="Path_47" data-name="Path 47" d="M-373.406,893.048H139.773A256.628,256.628,0,0,0,377.035,734.22L453.02,549.883a256.629,256.629,0,0,1,212.165-157.6L788.5,380.168A182.235,182.235,0,0,0,952.8,204.941c2.135-63.527,36.322-123.344,94.568-148.8,60.684-26.522,111.542-37.368,183.361-42.891" transform="translate(410.067 -13.251)" fill="none" stroke="#ab21ec" stroke-linecap="round" stroke-width="5" stroke-dasharray="0.05 20" opacity="0.217"/>
      <path id="Path_48" data-name="Path 48" d="M-363.406,893.048H149.773A256.628,256.628,0,0,0,387.035,734.22L463.02,549.883a256.629,256.629,0,0,1,212.165-157.6L798.5,380.168A182.232,182.232,0,0,0,962.8,204.941c2.135-63.527,36.322-123.344,94.568-148.8,60.684-26.522,111.542-37.368,183.362-42.891" transform="translate(409.233 -13.251)" fill="none" stroke="#ab21ec" stroke-linecap="round" stroke-width="5" stroke-dasharray="0.05 20" opacity="0.261"/>
      <path id="Path_49" data-name="Path 49" d="M-353.406,893.048H159.773A256.628,256.628,0,0,0,397.035,734.22L473.02,549.883a256.629,256.629,0,0,1,212.165-157.6L808.5,380.168A182.232,182.232,0,0,0,972.8,204.941c2.135-63.527,36.322-123.344,94.568-148.8,60.683-26.522,111.542-37.368,183.361-42.891" transform="translate(408.398 -13.251)" fill="none" stroke="#ab21ec" stroke-linecap="round" stroke-width="5" stroke-dasharray="0.05 20" opacity="0.304"/>
      <path id="Path_50" data-name="Path 50" d="M-343.406,893.048H169.773A256.628,256.628,0,0,0,407.035,734.22L483.02,549.883a256.629,256.629,0,0,1,212.165-157.6L818.5,380.168A182.232,182.232,0,0,0,982.8,204.941c2.135-63.527,36.322-123.344,94.568-148.8,60.684-26.522,111.542-37.368,183.361-42.891" transform="translate(407.563 -13.251)" fill="none" stroke="#ab21ec" stroke-linecap="round" stroke-width="5" stroke-dasharray="0.05 20" opacity="0.348"/>
      <path id="Path_51" data-name="Path 51" d="M-333.406,893.048H179.773A256.628,256.628,0,0,0,417.035,734.22L493.02,549.883a256.629,256.629,0,0,1,212.165-157.6L828.5,380.168A182.232,182.232,0,0,0,992.8,204.941c2.135-63.528,36.322-123.344,94.568-148.8,60.684-26.522,111.542-37.368,183.362-42.891" transform="translate(406.729 -13.251)" fill="none" stroke="#ab21ec" stroke-linecap="round" stroke-width="5" stroke-dasharray="0.05 20" opacity="0.391"/>
      <path id="Path_52" data-name="Path 52" d="M-323.406,893.048H189.773A256.628,256.628,0,0,0,427.035,734.22L503.02,549.883a256.629,256.629,0,0,1,212.165-157.6L838.5,380.168A182.232,182.232,0,0,0,1002.8,204.941c2.135-63.528,36.322-123.344,94.568-148.8,60.683-26.522,111.542-37.368,183.361-42.891" transform="translate(405.894 -13.251)" fill="none" stroke="#ab21ec" stroke-linecap="round" stroke-width="5" stroke-dasharray="0.05 20" opacity="0.435"/>
      <path id="Path_53" data-name="Path 53" d="M-313.406,893.048H199.773A256.628,256.628,0,0,0,437.035,734.22L513.02,549.883a256.629,256.629,0,0,1,212.165-157.6L848.5,380.168A182.232,182.232,0,0,0,1012.8,204.941c2.135-63.528,36.322-123.344,94.568-148.8,60.684-26.522,111.542-37.368,183.361-42.891" transform="translate(405.059 -13.251)" fill="none" stroke="#ab21ec" stroke-linecap="round" stroke-width="5" stroke-dasharray="0.05 20" opacity="0.478"/>
      <path id="Path_54" data-name="Path 54" d="M-303.406,893.048H209.773A256.628,256.628,0,0,0,447.035,734.22L523.02,549.883a256.629,256.629,0,0,1,212.165-157.6L858.5,380.168A182.232,182.232,0,0,0,1022.8,204.941c2.135-63.528,36.322-123.344,94.568-148.8,60.684-26.522,111.542-37.368,183.362-42.891" transform="translate(404.225 -13.251)" fill="none" stroke="#ab21ec" stroke-linecap="round" stroke-width="5" stroke-dasharray="0.05 20" opacity="0.522"/>
      <path id="Path_55" data-name="Path 55" d="M-293.406,893.048H219.773A256.628,256.628,0,0,0,457.035,734.22L533.02,549.883a256.629,256.629,0,0,1,212.165-157.6L868.5,380.168A182.232,182.232,0,0,0,1032.8,204.941c2.135-63.527,36.322-123.344,94.568-148.8,60.683-26.522,111.542-37.368,183.361-42.891" transform="translate(403.39 -13.251)" fill="none" stroke="#ab21ec" stroke-linecap="round" stroke-width="5" stroke-dasharray="0.05 20" opacity="0.565"/>
      <path id="Path_56" data-name="Path 56" d="M-283.406,893.048H229.773A256.628,256.628,0,0,0,467.035,734.22L543.02,549.883a256.629,256.629,0,0,1,212.165-157.6L878.5,380.168A182.232,182.232,0,0,0,1042.8,204.941c2.135-63.527,36.322-123.344,94.568-148.8,60.684-26.522,111.542-37.368,183.361-42.891" transform="translate(402.555 -13.251)" fill="none" stroke="#ab21ec" stroke-linecap="round" stroke-width="5" stroke-dasharray="0.05 20" opacity="0.609"/>
      <path id="Path_57" data-name="Path 57" d="M-273.406,893.048H239.773A256.628,256.628,0,0,0,477.035,734.22L553.02,549.883a256.629,256.629,0,0,1,212.165-157.6L888.5,380.168A182.232,182.232,0,0,0,1052.8,204.941c2.135-63.527,36.322-123.344,94.568-148.8,60.684-26.522,111.542-37.368,183.362-42.891" transform="translate(401.721 -13.251)" fill="none" stroke="#ab21ec" stroke-linecap="round" stroke-width="5" stroke-dasharray="0.05 20" opacity="0.652"/>
      <path id="Path_58" data-name="Path 58" d="M-263.406,893.048H249.773A256.628,256.628,0,0,0,487.035,734.22L563.02,549.883a256.629,256.629,0,0,1,212.165-157.6L898.5,380.168A182.232,182.232,0,0,0,1062.8,204.941c2.135-63.527,36.322-123.344,94.568-148.8,60.683-26.522,111.542-37.368,183.361-42.891" transform="translate(400.886 -13.251)" fill="none" stroke="#ab21ec" stroke-linecap="round" stroke-width="5" stroke-dasharray="0.05 20" opacity="0.696"/>
      <path id="Path_59" data-name="Path 59" d="M-253.406,893.048H259.773A256.628,256.628,0,0,0,497.035,734.22L573.02,549.883a256.629,256.629,0,0,1,212.165-157.6L908.5,380.168A182.232,182.232,0,0,0,1072.8,204.941c2.135-63.527,36.322-123.344,94.568-148.8,60.684-26.522,111.542-37.368,183.361-42.891" transform="translate(400.051 -13.251)" fill="none" stroke="#ab21ec" stroke-linecap="round" stroke-width="5" stroke-dasharray="0.05 20" opacity="0.739"/>
      <path id="Path_60" data-name="Path 60" d="M-243.406,893.048H269.773A256.628,256.628,0,0,0,507.035,734.22L583.02,549.883a256.629,256.629,0,0,1,212.165-157.6L918.5,380.168A182.232,182.232,0,0,0,1082.8,204.941c2.135-63.528,36.322-123.344,94.568-148.8,60.684-26.522,111.542-37.368,183.362-42.891" transform="translate(399.216 -13.251)" fill="none" stroke="#ab21ec" stroke-linecap="round" stroke-width="5" stroke-dasharray="0.05 20" opacity="0.783"/>
      <path id="Path_61" data-name="Path 61" d="M-233.406,893.048H279.773A256.628,256.628,0,0,0,517.035,734.22L593.02,549.883a256.629,256.629,0,0,1,212.165-157.6L928.5,380.168A182.232,182.232,0,0,0,1092.8,204.941c2.135-63.528,36.322-123.344,94.568-148.8,60.683-26.522,111.542-37.368,183.361-42.891" transform="translate(398.382 -13.251)" fill="none" stroke="#ab21ec" stroke-linecap="round" stroke-width="5" stroke-dasharray="0.05 20" opacity="0.826"/>
      <path id="Path_62" data-name="Path 62" d="M-223.406,893.048H289.773A256.628,256.628,0,0,0,527.035,734.22L603.02,549.883a256.629,256.629,0,0,1,212.165-157.6L938.5,380.168A182.232,182.232,0,0,0,1102.8,204.941c2.135-63.528,36.322-123.344,94.568-148.8,60.684-26.522,111.542-37.368,183.361-42.891" transform="translate(397.547 -13.251)" fill="none" stroke="#ab21ec" stroke-linecap="round" stroke-width="5" stroke-dasharray="0.05 20" opacity="0.87"/>
      <path id="Path_63" data-name="Path 63" d="M-213.406,893.048H299.773A256.628,256.628,0,0,0,537.035,734.22L613.02,549.883a256.629,256.629,0,0,1,212.165-157.6L948.5,380.168A182.232,182.232,0,0,0,1112.8,204.941c2.135-63.528,36.322-123.344,94.568-148.8,60.684-26.522,111.542-37.368,183.362-42.891" transform="translate(396.712 -13.251)" fill="none" stroke="#ab21ec" stroke-linecap="round" stroke-width="5" stroke-dasharray="0.05 20" opacity="0.913"/>
      <path id="Path_64" data-name="Path 64" d="M-203.406,893.048H309.773A256.628,256.628,0,0,0,547.035,734.22L623.02,549.883a256.629,256.629,0,0,1,212.165-157.6L958.5,380.168A182.232,182.232,0,0,0,1122.8,204.941c2.135-63.527,36.322-123.344,94.568-148.8,60.684-26.522,111.542-37.368,183.362-42.891" transform="translate(395.878 -13.251)" fill="none" stroke="#ab21ec" stroke-linecap="round" stroke-width="5" stroke-dasharray="0.05 20" opacity="0.957"/>
      <path id="Path_65" data-name="Path 65" d="M-193.406,893.048H319.773A256.629,256.629,0,0,0,557.035,734.22L633.02,549.883a256.629,256.629,0,0,1,212.165-157.6L968.5,380.168A182.232,182.232,0,0,0,1132.8,204.941c2.135-63.527,36.322-123.344,94.568-148.8,60.684-26.522,111.542-37.368,183.361-42.891" transform="translate(395.043 -13.251)" fill="none" stroke="#ab21ec" stroke-linecap="round" stroke-width="5" stroke-dasharray="0.05 20"/>
    </g>
  </g>
</svg>
